<svg xmlns="http://www.w3.org/2000/svg" width="61" height="80" viewBox="0 0 61 80">
    <g fill="none" fill-rule="evenodd">
        <g fill="#FFF" fill-rule="nonzero">
            <g>
                <path d="M45.7 60.1c1.2 0 2.2 1 2.2 2.2 0 1.2-1 2.2-2.2 2.2-1.2 0-2.2-1-2.2-2.2 0-1.2.9-2.2 2.2-2.2m0 4.1c1 0 1.7-.8 1.7-1.8s-.8-1.8-1.7-1.8c-1 0-1.7.8-1.7 1.8-.1 1 .7 1.8 1.7 1.8m-.3-.6h-.5v-2.4h.8c.5 0 .8.3.8.8 0 .3-.2.6-.5.7l.5.9H46l-.5-.9h-.2v.9h.1zm.3-1.3c.3 0 .4-.1.4-.4 0-.2-.2-.4-.4-.4h-.3v.7h.3v.1zM56.4 43.2c-1.2 0-2 .6-2.8 1.2l-.6.8-.2-.2.7-1.1v-.7h-4.3v14.1h3.9v-8.9c0-1.4 1-1.9 1.6-2 .6-.1 1.5.3 1.5 1.1v9.9h3.9v-9.7c0-3.1-1.4-4.5-3.7-4.5M13.2 54.3L17.2 54.3 17.2 57.3 9.3 57.3 9.3 43.2 13.2 43.2zM0 57.3L7.9 57.3 7.9 54.5 3.9 54.5 3.9 51.4 7.9 51.4 7.9 48.7 3.9 48.7 3.9 46.1 7.9 46.1 7.9 43.2 0 43.2zM18.6 57.3L26.5 57.3 26.5 54.5 22.4 54.5 22.4 51.4 26.5 51.4 26.5 48.7 22.4 48.7 22.4 46.1 26.5 46.1 26.5 43.2 18.6 43.2zM39.9 57.3L47.9 57.3 47.9 54.5 43.8 54.5 43.8 51.4 47.9 51.4 47.9 48.7 43.8 48.7 43.8 46.1 47.9 46.1 47.9 43.2 39.9 43.2zM34.9 43.2L34.9 43.2 34.9 43.2 33.4 52.1 33.3 53.7 33.3 53.8 33.2 53.8 33.1 53.7 33 52.1 31.5 43.2 31.5 43.2 27.6 43.2 30.9 57.3 35.6 57.3 38.8 43.2zM50.4 0H0v20h26.6c5.9-8.6 14.2-15.6 23.8-20M20 80L40 80 40 60 20.1 60z" transform="translate(-31.000000, -23.000000) translate(31.000000, 23.000000)"/>
                <path d="M60.1 20.1V0C41 5.2 26.1 20.6 21.5 40H42c3-8.9 9.6-16 18.1-19.9" transform="translate(-31.000000, -23.000000) translate(31.000000, 23.000000)"/>
            </g>
        </g>
    </g>
</svg>
